<?xml version="1.0" encoding="UTF-8"?><svg width="35" height="26" viewBox="0 0 35 26" fill="none" xmlns="http://www.w3.org/2000/svg">
<g clip-path="url(#clip0_5349_129)">
<path d="M0.00390625 21.3162C0.00390625 21.2897 0.0298817 21.2633 0.0558571 21.2369C0.0558571 21.2369 0.0558571 21.2369 0.0818327 21.2369H1.87414C2.26377 21.2104 2.67937 21.3162 2.99108 21.5806C3.22486 21.8186 3.35474 22.1359 3.35474 22.4797C3.35474 22.6912 3.30278 22.9292 3.19889 23.1143C3.09498 23.273 2.96511 23.4052 2.80925 23.4846V23.5374C2.88718 23.5639 2.96511 23.6167 3.04303 23.6696C3.12096 23.7225 3.19889 23.8019 3.25084 23.9076C3.30278 24.0134 3.35474 24.1192 3.38071 24.2249C3.40669 24.3572 3.43267 24.4894 3.43267 24.6216C3.45864 25.0182 3.30278 25.4149 3.01706 25.6529C2.67937 25.8909 2.26377 26.0231 1.84816 25.9967H0.0818327C0.0298817 25.9702 0.00390625 25.9438 0.00390625 25.9173C0.00390625 25.9173 0.00390625 25.9173 0.00390625 25.8909V21.3162ZM1.74426 23.1672C1.90011 23.1672 2.05597 23.1143 2.18584 23.035C2.28974 22.9292 2.34169 22.7705 2.34169 22.6384C2.34169 22.4797 2.28974 22.3475 2.18584 22.2417C2.05597 22.1359 1.90011 22.0831 1.74426 22.1095H1.04293C1.01695 22.1095 1.01695 22.1095 0.990974 22.1359V23.1672C0.990974 23.1937 0.990974 23.1937 1.01695 23.2201L1.74426 23.1672ZM1.01695 25.0976C1.01695 25.124 1.01695 25.124 1.04293 25.1505H1.79621C1.97804 25.1505 2.13389 25.0976 2.26377 24.9918C2.47157 24.7538 2.47157 24.3836 2.26377 24.1192C2.13389 24.0134 1.97804 23.9341 1.79621 23.9605H1.04293C1.01695 23.9605 1.01695 23.9605 0.990974 23.987L1.01695 25.0976Z" fill="#262B33"/>
<path d="M11.173 21.3161C11.173 21.2632 11.2249 21.2368 11.2509 21.2368H12.1081C12.1601 21.2368 12.186 21.2632 12.186 21.3161L13.7445 25.8908C13.7705 25.9437 13.7445 25.9702 13.6926 25.9702H12.8094C12.7575 25.9702 12.7315 25.9437 12.7315 25.8908L12.4718 25.0711H10.8613L10.6015 25.8908C10.6015 25.9437 10.5496 25.9702 10.5236 25.9702H9.61444C9.5625 25.9702 9.5625 25.9437 9.5625 25.8908L11.173 21.3161ZM12.212 24.1985L11.6925 22.559H11.6665L11.147 24.1985H12.212Z" fill="#262B33"/>
<path d="M20.1348 21.3161C20.1348 21.2897 20.1607 21.2632 20.1867 21.2368C20.1867 21.2368 20.1867 21.2368 20.2127 21.2368H21.0699C21.0958 21.2368 21.1219 21.2632 21.1478 21.2897C21.1478 21.2897 21.1478 21.2897 21.1478 21.3161V23.0879C21.1478 23.1143 21.1478 23.1143 21.1738 23.1407H22.6804C22.7064 23.1407 22.7064 23.1407 22.7323 23.1143V21.3426C22.7323 21.3161 22.7583 21.2897 22.7843 21.2632C22.7843 21.2632 22.7843 21.2632 22.8102 21.2632H23.6674C23.6934 21.2632 23.7194 21.2897 23.7453 21.3161C23.7453 21.3161 23.7453 21.3161 23.7453 21.3426V25.9173C23.7453 25.9438 23.7194 25.9702 23.6934 25.9966C23.6934 25.9966 23.6934 25.9966 23.6674 25.9966H22.8102C22.7843 25.9966 22.7583 25.9702 22.7323 25.9437C22.7323 25.9437 22.7323 25.9438 22.7323 25.9173V24.0662C22.7323 24.0398 22.7323 24.0398 22.7064 24.0134H21.1998C21.1738 24.0134 21.1738 24.0134 21.1478 24.0398V25.8644C21.1478 25.8908 21.1219 25.9173 21.0958 25.9437C21.0958 25.9437 21.0958 25.9437 21.0699 25.9437H20.2127C20.1867 25.9437 20.1607 25.9173 20.1348 25.8908C20.1348 25.8908 20.1348 25.8908 20.1348 25.8644V21.3161Z" fill="#262B33"/>
<path d="M32.9921 25.9702C32.9401 25.9702 32.9142 25.9437 32.8882 25.8908L32.083 24.172H31.4595C31.4336 24.172 31.4336 24.172 31.4076 24.1985V25.8908C31.4076 25.9173 31.3816 25.9437 31.3557 25.9702C31.3557 25.9702 31.3557 25.9702 31.3297 25.9702H30.4725C30.4465 25.9702 30.4205 25.9437 30.3945 25.9173C30.3945 25.9173 30.3945 25.9173 30.3945 25.8908V21.3161C30.3945 21.2897 30.4205 21.2632 30.4465 21.2368C30.4465 21.2368 30.4465 21.2368 30.4725 21.2368H32.3167C32.5246 21.2368 32.7583 21.2632 32.9661 21.3426C33.148 21.4219 33.3298 21.5012 33.4597 21.6335C33.5895 21.7657 33.7194 21.9244 33.7714 22.1094C33.8493 22.2945 33.8753 22.5061 33.8753 22.6912C33.8753 22.9821 33.7973 23.2465 33.6674 23.4845C33.5116 23.7225 33.3038 23.8811 33.07 23.9869L33.9791 25.8379C33.9791 25.8644 33.9791 25.8908 33.9791 25.8908C33.9791 25.9173 33.9532 25.9173 33.9272 25.9173L32.9921 25.9702ZM32.2908 23.2994C32.4466 23.2994 32.6284 23.2465 32.7583 23.1407C32.8622 23.035 32.9401 22.8763 32.9401 22.7176C32.9401 22.559 32.8882 22.4003 32.7583 22.2945C32.6284 22.1888 32.4726 22.1359 32.2908 22.1359H31.4855C31.4595 22.1359 31.4595 22.1359 31.4336 22.1623V23.2729C31.4336 23.2994 31.4336 23.2994 31.4595 23.3258L32.2908 23.2994Z" fill="#262B33"/>
<path d="M30.9149 13.145H33.98C34.1099 13.145 34.2137 13.2508 34.2137 13.383V15.8422C34.2137 15.9744 34.1099 16.0802 33.98 16.0802H30.9149C30.785 16.0802 30.6811 15.9744 30.6811 15.8422V13.383C30.6551 13.2508 30.785 13.145 30.9149 13.145Z" fill="#262B33"/>
<path d="M34.2916 0.425927H31.2784C31.1486 0.399484 31.0447 0.505257 31.0447 0.611031C31.0447 0.637473 31.0447 0.663915 31.0447 0.663915V6.61367C31.0966 6.98386 30.9928 7.3541 30.759 7.64499C30.4992 7.85652 30.1875 7.96229 29.8498 7.93582H25.2521C24.7846 7.96229 24.317 7.85652 23.9274 7.5921C23.6157 7.3541 23.4339 7.01033 23.4079 6.64014V6.24348C23.4079 5.39729 23.304 4.57754 23.0962 3.78424C22.8884 3.07027 22.5507 2.38274 22.0832 1.80098C21.5896 1.21923 20.9662 0.769694 20.2649 0.478814C19.3817 0.13505 18.4466 -0.0236102 17.5115 0.00283322C16.5764 -0.0236102 15.6412 0.161493 14.81 0.558142C14.0827 0.928351 13.4334 1.40433 12.8619 1.98609C12.758 2.1183 12.7839 2.22408 12.9398 2.38274L14.3944 4.15445C14.4723 4.23377 14.6282 4.23377 14.7061 4.15445L14.7321 4.128C15.0698 3.81068 15.4594 3.54624 15.875 3.3347C16.3166 3.12315 16.7842 3.01738 17.2777 3.01738C17.6933 2.99094 18.1089 3.09671 18.4726 3.25537C18.7843 3.41403 19.044 3.62558 19.2518 3.91645C19.4596 4.20733 19.5895 4.52465 19.6675 4.89486C19.7454 5.29152 19.7973 5.68818 19.7973 6.08483C19.7973 6.40214 19.7713 6.69302 19.7194 7.01033C19.6414 7.45987 19.3038 7.80364 18.8362 7.88294C18.5245 7.93582 18.1869 7.98876 17.8752 7.96229H8.03042C7.56289 7.98876 7.09531 7.85652 6.67972 7.5921C6.36802 7.3541 6.1602 6.98386 6.1602 6.58726V0.690362C6.18617 0.558142 6.08229 0.452371 5.97841 0.452371C5.95244 0.452371 5.92641 0.452371 5.92641 0.452371H2.91328C2.78341 0.425927 2.67951 0.5317 2.67951 0.637473C2.67951 0.663915 2.67951 0.690362 2.67951 0.690362V9.86622C2.67951 10.3951 2.65353 10.8446 2.62756 11.2413C2.60158 11.585 2.52365 11.9288 2.39378 12.2461C2.28988 12.5106 2.08207 12.7221 1.84829 12.8808C1.53659 13.0394 1.17293 13.1188 0.809276 13.0923H0.237816C0.107939 13.0659 0.00403704 13.1717 0.00403704 13.2774C0.00403704 13.3038 0.00403704 13.3303 0.00403704 13.3303V15.8688C-0.0219384 16.0011 0.0819634 16.1068 0.185865 16.1068C0.21184 16.1068 0.237816 16.1068 0.237816 16.1068H1.38073C3.12109 16.1068 4.34193 15.6573 5.06925 14.7318C5.79656 13.8327 6.1602 12.4048 6.1602 10.5009V10.1042C6.41996 10.4479 6.75764 10.6859 7.17327 10.7917C7.6408 10.8975 8.10838 10.9504 8.57591 10.9504H19.2259C19.9531 10.9768 20.6805 10.8711 21.3558 10.6331C21.9533 10.4215 22.4468 9.99846 22.7585 9.41668C23.0183 9.97199 23.4598 10.4215 24.0053 10.6595C24.5768 10.8711 25.2002 10.9504 25.7976 10.9504H31.6421C32.6811 10.9504 33.4085 10.6859 33.85 10.1835C34.2916 9.6811 34.5254 8.88779 34.5254 7.77717V0.637473C34.5513 0.505257 34.4475 0.399484 34.3436 0.399484C34.3176 0.425927 34.3176 0.425927 34.2916 0.425927Z" fill="#262B33"/>
</g>
<defs>
<clipPath id="clip0_5349_129">
<rect width="35" height="26" fill="white"/>
</clipPath>
</defs>
</svg>
