<?xml version="1.0" encoding="utf-8"?><svg fill="none" height="24" viewBox="0 0 57 24" width="57" xmlns="http://www.w3.org/2000/svg"><path d="m31.6451 13.7469v-.048c-.0734-2.4372-1.5664-3.79393-4.9808-4.55032-3.1696-.69635-3.7203-1.1766-3.7447-2.23314v-.04802c-.0367-1.03252.9423-1.75289 2.4108-1.78891 1.4074-.03602 2.8025.44423 4.2955 1.46475l.1101.07203 1.5787-2.32918-.0979-.07204c-1.6644-1.23663-3.4878-1.83693-5.5927-1.83693-.1101 0-.2203 0-.3304 0-3.2797.09604-5.507 2.07705-5.4336 4.81445v.04802c.049 1.42873.5385 2.48527 1.5053 3.22969.8689.6603 2.1538 1.1045 4.0384 1.4047 2.056.3241 3.1574 1.0805 3.1819 2.1611v.048c.0367 1.1166-1.0035 1.8609-2.6312 1.909-.3304 0-.6486 0-.93-.0361-1.799-.3481-2.3007-.9364-3.5-2.3652l-.0979-.12-2.1906 1.7649.1101.12c1.0647 1.2727 2.7658 3.0016 5.2011 3.2657.4406.048.8199.072 1.1871.072h.2447c3.5367-.096 5.764-2.041 5.6783-4.9585" fill="#022f5b"/><path d="m53.3059 6.01503-2.9982 8.40427-3.0227-8.32022-.0368-.10806h-6.4982l-4.4913 5.06658v-7.43178h-3.2552v15.05568h3.2552v-6.3513l4.6382 6.3033.0367.048h3.757l-5.2011-7.0116 4.5525-5.07857 4.5646 11.94607v.048c-.6608 1.4047-1.5052 2.6174-3.8181 2.6174h-.1347v2.5333h.1347c5.0786 0 6.3269-3.2537 7.5262-6.3993.1101-.3002.2203-.5883.3426-.8764l3.8427-10.45737h-3.2063z" fill="#022f5b"/><path d="m15.3199 3.07323c-1.0647-.38419-2.1783-.57629-3.3164-.57629v-2.4852655c1.444 0 2.8514.2401215 4.1853.7203655z" fill="#e7456c"/><path d="m2.88636 8.76446-2.38636-.85243c1.75-4.73041 6.36364-7.91203 11.5035-7.91203v2.48526c-4.06294 0-7.73427 2.52129-9.11714 6.26719z" fill="#00b4c9"/><path d="m18.514 15.2359-2.0315-1.8009c-1.701 1.8489-2.9003 2.5693-4.3566 2.5813-1.0035 0-1.9336-.3602-2.64338-.9485l8.57868-4.5383-.3549-1.06851c-.049-.15608-1.3462-3.88998-5.507-4.10609-1.7378-.09605-3.41433.52827-4.71153 1.72888-1.37063 1.27264-2.16609 3.07352-2.16609 4.94652 0 .7084.0979 1.3447.30595 1.981l-1.81119.9485 1.2972 2.3532 1.82343-.9485c1.24825 1.4167 3.13283 2.3412 5.18883 2.3412.4405 0 .8811-.048 1.2972-.1201 1.187-.2281 2.3007-.7564 3.2063-1.5608.4895-.4322 1.1626-1.0325 1.8601-1.7889m-10.45103-3.2056c0-1.1286.47727-2.22114 1.30944-3.00154.69759-.64833 1.59089-1.00851 2.50869-1.00851h.1836c1.2483.06003 2.0315.72037 2.4965 1.30867l-6.43705 3.40978c-.04895-.2282-.06118-.4803-.06118-.7204" fill="#022f5b"/><path d="m12.0035 24c-1.4318 0-2.83916-.2401-4.17308-.7204l.86888-2.3412c1.05245.3722 2.1661.5643 3.3042.5643 1.701 0 3.3654-.4322 4.8339-1.2606l1.2605 2.1611c-1.8479 1.0445-3.9528 1.5968-6.0944 1.5968z" fill="#006fb4"/></svg>