<?xml version="1.0" encoding="utf-8"?><svg fill="none" height="17" viewBox="0 0 28 17" width="28" xmlns="http://www.w3.org/2000/svg"><path d="m27.4554 16.7469c.3303-.238.5448-.6217.5448-1.0546v-7.84615c0-.72221-.597-1.30769-1.3334-1.30769s-1.3333.58548-1.3333 1.30769v4.68925l-6.5051-6.37995c-1.5621-1.53206-4.0947-1.53206-5.6568 0l-1.5621 1.53205c-.5207.51069-1.3649.51069-1.88564.00001l-7.44772-7.304495c-.5207-.510687-1.364917-.510687-1.885616 0-.520699.510685-.520699 1.338675 0 1.849355l7.447716 7.30449c1.5621 1.53204 4.09476 1.53204 5.65686 0l1.5621-1.53206c.5207-.51068 1.3649-.51068 1.8856 0l6.5049 6.3798h-4.7809c-.7364 0-1.3333.5855-1.3333 1.3077s.5969 1.3077 1.3333 1.3077h7.9997c.295 0 .568-.094.7889-.2531z" fill="#70869c"/></svg>