<?xml version="1.0" encoding="utf-8"?><svg fill="none" height="17" viewBox="0 0 29 17" width="29" xmlns="http://www.w3.org/2000/svg"><path d="m27.9554.253112c.3303.23801.5448.621736.5448 1.054578v7.84616c0 .72221-.597 1.30765-1.3334 1.30765s-1.3333-.58544-1.3333-1.30765v-4.68927l-6.5051 6.38002c-1.5621 1.532-4.0947 1.532-5.6568 0l-1.5621-1.5321c-.5207-.51069-1.3649-.51069-1.8856-.00001l-7.44776 7.30451c-.5207.5107-1.36492.5107-1.885616 0-.520699-.5107-.520699-1.3387 0-1.8494l7.447716-7.30446c1.5621-1.53206 4.09476-1.53205 5.65686 0l1.5621 1.53206c.5207.51068 1.3649.51068 1.8856 0l6.5049-6.37982h-4.7809c-.7364 0-1.3333-.58547-1.3333-1.30769 0-.722216.5969-1.30769 1.3333-1.30769h7.9997c.295 0 .568.093992.7889.253112z" fill="#70869c"/></svg>